<?xml version="1.0" standalone="no"?><!DOCTYPE svg PUBLIC "-//W3C//DTD SVG 1.1//EN" "http://www.w3.org/Graphics/SVG/1.1/DTD/svg11.dtd"><svg t="1586335028829" class="icon" viewBox="0 0 1024 1024" version="1.1" xmlns="http://www.w3.org/2000/svg" p-id="1154" xmlns:xlink="http://www.w3.org/1999/xlink" width="200" height="200"><defs><style type="text/css"></style></defs><path d="M874.130773 873.472c-199.826286 199.972571-524.678095 199.972571-724.528762 0-199.826286-199.94819-198.851048-524.04419 0.999619-724.016762 199.826286-199.94819 522.727619-199.94819 722.553905 0 199.826286 199.972571 200.825905 524.068571 0.975238 724.016762zM606.891154 233.910857l-83.870476 170.837333c-9.606095 20.577524-16.993524 34.06019-22.211048 52.175239-4.36419-16.725333-11.776-30.232381-22.186666-52.175239l-82.212572-170.837333h-126.610285l127.829333 249.319619h-83.894857v101.156572h137.898667v40.594285h-137.898667v99.669334h137.898667v107.910095h111.12838v-107.910095h138.48381v-99.669334h-138.48381v-40.594285h138.48381V483.230476h-97.231238l129.487238-249.319619H606.891154z" fill="" p-id="1155"></path></svg>